<svg xmlns="http://www.w3.org/2000/svg" width="110" height="55.253" viewBox="0 0 110 55.253">
  <g transform="translate(-2794 -25)">
    <g>
      <path d="M90.57,59.178v4.936H88.1V51.027h5.123a4.358,4.358,0,0,1,1.757.328,3.694,3.694,0,0,1,1.243.86,3.61,3.61,0,0,1,.748,1.215,3.989,3.989,0,0,1,.252,1.393v.449a4.2,4.2,0,0,1-.252,1.431,3.774,3.774,0,0,1-.748,1.252,3.668,3.668,0,0,1-1.243.888,4.256,4.256,0,0,1-1.757.336Zm0-2.356h2.411a1.821,1.821,0,0,0,1.3-.449,1.519,1.519,0,0,0,.477-1.159v-.224a1.521,1.521,0,0,0-.477-1.16,1.821,1.821,0,0,0-1.3-.449H90.57Z" transform="translate(2746.599 -2.454)" fill="#231f20"/>
      <path d="M122.2,64.114h-2.468V60.188a1.1,1.1,0,0,0-.234-.729.958.958,0,0,0-.776-.281h-2.842v4.936h-2.468V51.027h5.01a5.154,5.154,0,0,1,1.776.281,3.594,3.594,0,0,1,1.281.776,3.369,3.369,0,0,1,.785,1.149,3.632,3.632,0,0,1,.271,1.4v.448a2.826,2.826,0,0,1-.43,1.505,2.721,2.721,0,0,1-1.327,1.075V58A1.518,1.518,0,0,1,122.2,59.59Zm-6.319-7.291h2.356a1.976,1.976,0,0,0,1.365-.42,1.515,1.515,0,0,0,.468-1.187v-.224a1.561,1.561,0,0,0-.468-1.131,1.826,1.826,0,0,0-1.365-.477h-2.356Z" transform="translate(2732.979 -2.454)" fill="#231f20"/>
      <path d="M139.461,51.027h8.264v2.356h-5.8v2.992H147.5V58.73h-5.571v3.029h6.02v2.356h-8.488Z" transform="translate(2718.966 -2.454)" fill="#231f20"/>
      <path d="M164.589,51.027h4.749a5.041,5.041,0,0,1,3.608,1.131,4.663,4.663,0,0,1,1.178,3.506v3.814a4.662,4.662,0,0,1-1.178,3.505,5.039,5.039,0,0,1-3.608,1.131h-4.749V61.74h1.234V53.383h-1.234Zm4.749,10.732a2.263,2.263,0,0,0,1.8-.607,2.9,2.9,0,0,0,.514-1.9V55.664a2.489,2.489,0,0,0-.514-1.7,2.327,2.327,0,0,0-1.8-.58H168.29v8.376Z" transform="translate(2705.447 -2.454)" fill="#231f20"/>
      <path d="M227.136,51.027V59.59a4.948,4.948,0,0,1-1.187,3.515,5.52,5.52,0,0,1-7.048,0,4.949,4.949,0,0,1-1.187-3.515V51.027h2.468V59.59a2.76,2.76,0,0,0,.542,1.813,2.539,2.539,0,0,0,3.4,0,2.759,2.759,0,0,0,.542-1.813V51.027Z" transform="translate(2676.864 -2.454)" fill="#231f20"/>
      <path d="M192.364,51.027l-3.142,13.087h2.553l3.142-13.087Z" transform="translate(2692.193 -2.454)" fill="#231f20"/>
      <path d="M204.1,51.027h-.666l-.943,3.929,2.2,9.158h2.553Z" transform="translate(2685.054 -2.454)" fill="#231f20"/>
      <path d="M113.415,90.694h8.753v2.357h-3.142v8.379h3.142v2.357h-8.753V101.43h3.142V93.051h-3.142Z" transform="translate(2732.979 -23.796)" fill="#231f20"/>
      <path d="M139.174,90.694h8.753v2.357h-3.142v8.379h3.142v2.357h-8.753V101.43h3.142V93.051h-3.142Z" transform="translate(2719.121 -23.796)" fill="#231f20"/>
      <path d="M164.588,90.694h9.427v2.357h-3.479v10.736h-2.469V93.051h-3.479Z" transform="translate(2705.447 -23.796)" fill="#231f20"/>
      <path d="M190.552,95.477a5.642,5.642,0,0,1,1.281-3.947,5.18,5.18,0,0,1,7.089,0,5.644,5.644,0,0,1,1.281,3.947V98.4a5.618,5.618,0,0,1-1.281,3.984,5.284,5.284,0,0,1-7.089,0,5.616,5.616,0,0,1-1.281-3.984Zm4.826,6.023a2.59,2.59,0,0,0,1.123-.215,1.873,1.873,0,0,0,.729-.608,2.439,2.439,0,0,0,.393-.936,5.91,5.91,0,0,0,.112-1.2V95.328a4.923,4.923,0,0,0-.131-1.159,2.677,2.677,0,0,0-.411-.935,2.042,2.042,0,0,0-.73-.627,2.634,2.634,0,0,0-2.17,0,2.042,2.042,0,0,0-.729.627,2.669,2.669,0,0,0-.411.935,4.93,4.93,0,0,0-.131,1.159v3.217a5.9,5.9,0,0,0,.112,1.2,2.435,2.435,0,0,0,.393.936,1.872,1.872,0,0,0,.729.608,2.588,2.588,0,0,0,1.122.215" transform="translate(2691.478 -23.491)" fill="#231f20"/>
      <path d="M226.824,103.787h-2.469V99.859a1.1,1.1,0,0,0-.234-.729.959.959,0,0,0-.777-.28H220.5v4.938h-2.469V90.694h5.012a5.171,5.171,0,0,1,1.777.28,3.6,3.6,0,0,1,1.281.777,3.377,3.377,0,0,1,.786,1.15,3.636,3.636,0,0,1,.271,1.4v.448a2.832,2.832,0,0,1-.43,1.506,2.726,2.726,0,0,1-1.328,1.075v.337a1.519,1.519,0,0,1,1.421,1.59ZM220.5,96.492h2.357a1.975,1.975,0,0,0,1.365-.421,1.515,1.515,0,0,0,.468-1.188V94.66a1.562,1.562,0,0,0-.468-1.132,1.828,1.828,0,0,0-1.365-.477H220.5Z" transform="translate(2676.692 -23.796)" fill="#231f20"/>
      <path d="M98.637,103.787l3.143-13.093H99.226l-3.144,13.093Z" transform="translate(2742.305 -23.796)" fill="#231f20"/>
      <path d="M87.995,103.787h.667l.944-3.931-2.2-9.162H84.852Z" transform="translate(2748.347 -23.796)" fill="#231f20"/>
    </g>
    <g>
      <path d="M39.458,55h5.226l13.2-55H52.662Z" transform="translate(2772.771 25)" fill="#f47e5e"/>
      <path d="M0,55H5.226L18.43,0H13.2Z" transform="translate(2794 25)" fill="#f47e5e"/>
    </g>
  </g>
</svg>
